<svg width="9.333008" height="10.500000" viewBox="0 0 9.33301 10.5" fill="none" xmlns="http://www.w3.org/2000/svg" xmlns:xlink="http://www.w3.org/1999/xlink">
	<desc>
			Created with Pixso.
	</desc>
	<defs/>
	<path id="Vector" d="M8.16 0L8.16 1.16L7 1.16L7 0L2.33 0L2.33 1.16L1.16 1.16L1.16 0L0 0L0 10.5L1.16 10.5L1.16 9.33L2.33 9.33L2.33 10.5L7 10.5L7 9.33L8.16 9.33L8.16 10.5L9.33 10.5L9.33 0L8.16 0ZM2.33 8.16L1.16 8.16L1.16 7L2.33 7L2.33 8.16ZM2.33 5.83L1.16 5.83L1.16 4.66L2.33 4.66L2.33 5.83ZM2.33 3.5L1.16 3.5L1.16 2.33L2.33 2.33L2.33 3.5ZM8.16 8.16L7 8.16L7 7L8.16 7L8.16 8.16ZM8.16 5.83L7 5.83L7 4.66L8.16 4.66L8.16 5.83ZM8.16 3.5L7 3.5L7 2.33L8.16 2.33L8.16 3.5Z" fill="#120E23" fill-opacity="1.000000" fill-rule="nonzero"/>
</svg>
