<svg width="18" height="14" viewBox="0 0 18 14" fill="none" xmlns="http://www.w3.org/2000/svg">
<path fill-rule="evenodd" clip-rule="evenodd" d="M9.00007 3.99984C7.34318 3.99984 6 5.34301 6 6.9999C6 8.65679 7.34318 9.99997 9.00007 9.99997C10.657 9.99997 12.0001 8.65679 12.0001 6.9999C12.0001 5.34301 10.657 3.99984 9.00007 3.99984ZM7.50003 6.9999C7.50003 6.17146 8.17162 5.49987 9.00007 5.49987C9.82851 5.49987 10.5001 6.17146 10.5001 6.9999C10.5001 7.82835 9.82851 8.49994 9.00007 8.49994C8.17162 8.49994 7.50003 7.82835 7.50003 6.9999Z" fill="#4C33AA"/>
<path fill-rule="evenodd" clip-rule="evenodd" d="M17.9208 6.66396C17.921 6.66423 17.9211 6.66449 17.2502 6.9999C17.9211 7.33532 17.921 7.33557 17.9208 7.33585L17.9196 7.33826L17.917 7.34338L17.9085 7.36004C17.9014 7.37396 17.8912 7.39343 17.8782 7.41808C17.8521 7.46739 17.8142 7.53749 17.7648 7.62543C17.6659 7.80119 17.5204 8.04879 17.3295 8.34433C16.9487 8.93396 16.3826 9.72202 15.6411 10.5129C14.1718 12.0802 11.9248 13.7501 9.00007 13.7501C6.07537 13.7501 3.82831 12.0802 2.35902 10.5129C1.61753 9.72202 1.05144 8.93396 0.670635 8.34433C0.479766 8.04879 0.334219 7.80119 0.235352 7.62543C0.18589 7.53749 0.148026 7.46739 0.121936 7.41808C0.108888 7.39343 0.0987766 7.37396 0.0916235 7.36004L0.0831124 7.34338L0.080524 7.33826L0.0796474 7.33651C0.0795096 7.33624 0.0790494 7.33532 0.749885 6.9999C0.0790494 6.66449 0.0791757 6.66423 0.0793135 6.66396L0.080524 6.66155L0.0831124 6.65643L0.0916235 6.63976C0.0987766 6.62585 0.108888 6.60638 0.121936 6.58172C0.148026 6.53242 0.18589 6.46231 0.235352 6.37438C0.334219 6.19862 0.479766 5.95102 0.670635 5.65548C1.05144 5.06585 1.61753 4.27779 2.35902 3.48687C3.82831 1.91962 6.07537 0.249756 9.00007 0.249756C11.9248 0.249756 14.1718 1.91962 15.6411 3.48687C16.3826 4.27779 16.9487 5.06585 17.3295 5.65548C17.5204 5.95102 17.6659 6.19862 17.7648 6.37438C17.8142 6.46231 17.8521 6.53242 17.8782 6.58172C17.8912 6.60638 17.9014 6.62585 17.9085 6.63976L17.917 6.65643L17.9196 6.66155L17.9208 6.66396ZM1.93072 7.53052C1.7961 7.32207 1.68743 7.14156 1.60546 6.9999C1.68743 6.85825 1.7961 6.67773 1.93072 6.46929C2.27649 5.9339 2.78855 5.22192 3.45335 4.51281C4.79661 3.07999 6.67465 1.74979 9.00007 1.74979C11.3255 1.74979 13.2035 3.07999 14.5468 4.51281C15.2116 5.22192 15.7236 5.9339 16.0694 6.46929C16.204 6.67773 16.3127 6.85825 16.3947 6.9999C16.3127 7.14156 16.204 7.32207 16.0694 7.53052C15.7236 8.06591 15.2116 8.77789 14.5468 9.487C13.2035 10.9198 11.3255 12.25 9.00007 12.25C6.67465 12.25 4.79661 10.9198 3.45335 9.487C2.78855 8.77789 2.27649 8.06591 1.93072 7.53052Z" fill="#4C33AA"/>
<path d="M17.2502 6.9999L17.9208 6.66396C18.0264 6.87511 18.0264 7.1247 17.9208 7.33585L17.2502 6.9999Z" fill="#4C33AA"/>
<path d="M0.0793135 6.66396L0.749885 6.9999L0.0790494 7.33532C-0.0265257 7.12417 -0.0262616 6.87511 0.0793135 6.66396Z" fill="#4C33AA"/>
</svg>
