<svg width="18" height="20" viewBox="0 0 18 20" fill="none" xmlns="http://www.w3.org/2000/svg">
<path d="M8.46967 1.30024C8.76256 0.982929 9.23744 0.982929 9.53033 1.30024L12.5303 4.55028C12.8232 4.86759 12.8232 5.38205 12.5303 5.69935C12.2374 6.01666 11.7626 6.01666 11.4697 5.69935L9.75 3.83635L9.75 12.4374C9.75 12.8862 9.41421 13.2499 9 13.2499C8.58579 13.2499 8.25 12.8862 8.25 12.4374L8.25 3.83635L6.53033 5.69935C6.23744 6.01666 5.76256 6.01666 5.46967 5.69935C5.17678 5.38205 5.17678 4.86759 5.46967 4.55028L8.46967 1.30024Z" fill="white"/>
<path d="M3 9.18738C3.41421 9.18738 3.75 9.55115 3.75 9.99989V16.5C3.75 16.7155 3.82902 16.9221 3.96967 17.0745C4.11032 17.2269 4.30109 17.3125 4.5 17.3125H13.5C13.6989 17.3125 13.8897 17.2269 14.0303 17.0745C14.171 16.9221 14.25 16.7155 14.25 16.5V9.99989C14.25 9.55115 14.5858 9.18738 15 9.18738C15.4142 9.18738 15.75 9.55115 15.75 9.99989V16.5C15.75 17.1465 15.5129 17.7665 15.091 18.2236C14.669 18.6807 14.0967 18.9375 13.5 18.9375H4.5C3.90326 18.9375 3.33097 18.6807 2.90901 18.2236C2.48705 17.7665 2.25 17.1465 2.25 16.5V9.99989C2.25 9.55115 2.58579 9.18738 3 9.18738Z" fill="white"/>
</svg>
